<svg xmlns="http://www.w3.org/2000/svg" viewBox="0 0 512 512">
  <defs>
    <linearGradient id="goldStroke" x1="0" y1="0" x2="1" y2="1">
      <stop offset="0%" stop-color="#6E5B2A"/>
      <stop offset="22%" stop-color="#B08D57"/>
      <stop offset="45%" stop-color="#F2E6B1"/>
      <stop offset="60%" stop-color="#D1B46E"/>
      <stop offset="78%" stop-color="#8A6B2E"/>
      <stop offset="100%" stop-color="#F7E7B7"/>
    </linearGradient>
    <linearGradient id="goldHighlight" x1="0" y1="1" x2="1" y2="0">
      <stop offset="0%" stop-color="#ffffff" stop-opacity="0.25"/>
      <stop offset="40%" stop-color="#ffffff" stop-opacity="0.05"/>
      <stop offset="100%" stop-color="#ffffff" stop-opacity="0"/>
    </linearGradient>
    <filter id="glow" x="-20%" y="-20%" width="140%" height="140%">
      <feGaussianBlur stdDeviation="3" result="blur"/>
      <feMerge>
        <feMergeNode in="blur"/>
        <feMergeNode in="SourceGraphic"/>
      </feMerge>
    </filter>
  </defs>
  <g fill="none" stroke="url(#goldStroke)" stroke-width="24" stroke-linecap="round" stroke-linejoin="round" filter="url(#glow)">
    
    
    <circle cx="256" cy="256" r="224" />
    <path d="M256 32v25.2"/>
    <path d="M256 480v-25.2"/>
    <path d="M32 256h25.2"/>
    <path d="M480 256h-25.2"/>
    
    <path d="M176 352l48-48 48 48" />
    <path d="M336 160l-48 48-48-48" />
    <path d="M256 176v160" />
    <circle cx="256" cy="336" r="18" />

  </g>
  <g fill="none" stroke="url(#goldHighlight)" stroke-width="4" stroke-linecap="round" stroke-linejoin="round" opacity="0.9">
    
    
    <circle cx="256" cy="256" r="224" />
    <path d="M256 32v25.2"/>
    <path d="M256 480v-25.2"/>
    <path d="M32 256h25.2"/>
    <path d="M480 256h-25.2"/>
    
    <path d="M176 352l48-48 48 48" />
    <path d="M336 160l-48 48-48-48" />
    <path d="M256 176v160" />
    <circle cx="256" cy="336" r="18" />

  </g>
</svg>