<svg xmlns="http://www.w3.org/2000/svg" viewBox="0 0 512 512">
  <defs>
    <linearGradient id="goldStroke" x1="0" y1="0" x2="1" y2="1">
      <stop offset="0%" stop-color="#6E5B2A"/>
      <stop offset="22%" stop-color="#B08D57"/>
      <stop offset="45%" stop-color="#F2E6B1"/>
      <stop offset="60%" stop-color="#D1B46E"/>
      <stop offset="78%" stop-color="#8A6B2E"/>
      <stop offset="100%" stop-color="#F7E7B7"/>
    </linearGradient>
    <linearGradient id="goldHighlight" x1="0" y1="1" x2="1" y2="0">
      <stop offset="0%" stop-color="#ffffff" stop-opacity="0.25"/>
      <stop offset="40%" stop-color="#ffffff" stop-opacity="0.05"/>
      <stop offset="100%" stop-color="#ffffff" stop-opacity="0"/>
    </linearGradient>
    <filter id="glow" x="-20%" y="-20%" width="140%" height="140%">
      <feGaussianBlur stdDeviation="3" result="blur"/>
      <feMerge>
        <feMergeNode in="blur"/>
        <feMergeNode in="SourceGraphic"/>
      </feMerge>
    </filter>
  </defs>
  <g fill="none" stroke="url(#goldStroke)" stroke-width="24" stroke-linecap="round" stroke-linejoin="round" filter="url(#glow)">
    
    <path d="M152 352c32-24 72-64 96-112" />
    <path d="M232 240l104 112" />
    <path d="M296 208l64-36" />
    <path d="M120 312l-36-64" />
    <circle cx="264" cy="320" r="52" />
    <path d="M264 268v-56" />
    <path d="M264 200l20-20M264 200l-20-20M264 200l0-28"/>

  </g>
  <g fill="none" stroke="url(#goldHighlight)" stroke-width="4" stroke-linecap="round" stroke-linejoin="round" opacity="0.9">
    
    <path d="M152 352c32-24 72-64 96-112" />
    <path d="M232 240l104 112" />
    <path d="M296 208l64-36" />
    <path d="M120 312l-36-64" />
    <circle cx="264" cy="320" r="52" />
    <path d="M264 268v-56" />
    <path d="M264 200l20-20M264 200l-20-20M264 200l0-28"/>

  </g>
</svg>