<?xml version="1.0" ?>
<svg xmlns="http://www.w3.org/2000/svg" width="825" height="1200" viewBox="0 0 825 1200" preserveAspectRatio="xMidYMid meet">
	<rect x="0" y="0" width="825" height="1200" fill="none"/>
	<rect x="36" y="36" width="753" height="1128" rx="18" fill="none" stroke="#d7b56d" stroke-width="6"/>
	<rect x="46" y="46" width="733" height="1108" rx="16" fill="none" stroke="#d7b56d" stroke-width="2"/>
	<rect x="58" y="58" width="709" height="1084" rx="14" fill="none" stroke="#d7b56d" stroke-width="2"/>
	<defs>
		<radialGradient id="goldGradient" cx="50%" cy="50%" r="65%" fx="50%" fy="50%">
			<stop offset="0%" style="stop-color:#f9e7a8;stop-opacity:1"/>
			<stop offset="70%" style="stop-color:#d7b56d;stop-opacity:1"/>
			<stop offset="100%" style="stop-color:#8c6c32;stop-opacity:1"/>
		</radialGradient>
	</defs>
	<g id="logo_group" fill="none" stroke="url(#goldGradient)" stroke-width="3" stroke-linecap="round" stroke-linejoin="round" style="fill:none;stroke:url(#goldGradient);stroke-width:3;stroke-linecap:round;stroke-linejoin:round" transform="translate(130.125,317.625) scale(0.551513671875)">
		<defs/>
		
  
		<path d="M 668,787 L 669,786 L 670,787 L 670,788 L 671,789 L 671,791 L 672,792 L 672,794 L 673,795 L 673,797 L 674,798 L 674,800 L 675,801 L 675,803 L 676,804 L 676,806 L 677,807 L 677,809 L 678,810 L 678,811 L 679,812 L 679,814 L 680,815 L 680,817 L 681,818 L 681,820 L 682,821 L 682,822 L 681,823 L 658,823 L 657,822 L 657,820 L 658,819 L 658,817 L 659,816 L 659,814 L 660,813 L 660,811 L 661,810 L 661,808 L 662,807 L 662,805 L 663,804 L 663,802 L 664,801 L 664,799 L 665,798 L 665,796 L 666,795 L 666,793 L 667,792 L 667,790 L 668,789 Z M 439,776 L 440,775 L 452,775 L 453,776 L 458,776 L 459,777 L 461,777 L 462,778 L 463,778 L 465,780 L 466,780 L 470,784 L 470,785 L 472,787 L 472,789 L 473,790 L 473,791 L 474,792 L 474,795 L 475,796 L 475,803 L 476,804 L 476,814 L 475,815 L 475,822 L 474,823 L 474,827 L 473,828 L 473,830 L 472,831 L 472,832 L 471,833 L 471,834 L 469,836 L 469,837 L 467,839 L 466,839 L 464,841 L 463,841 L 462,842 L 461,842 L 460,843 L 458,843 L 457,844 L 453,844 L 452,845 L 440,845 L 439,844 Z M 790,765 L 790,766 L 793,769 L 793,770 L 794,771 L 794,773 L 795,774 L 795,847 L 794,848 L 794,850 L 791,853 L 791,854 L 790,855 L 850,855 L 850,838 L 851,837 L 851,835 L 850,834 L 849,835 L 849,836 L 843,842 L 842,842 L 841,843 L 840,843 L 839,844 L 837,844 L 836,845 L 814,845 L 813,844 L 813,816 L 814,815 L 835,815 L 836,816 L 838,816 L 842,820 L 843,820 L 843,797 L 838,802 L 837,802 L 836,803 L 814,803 L 813,802 L 813,777 L 814,776 L 837,776 L 838,777 L 839,777 L 840,778 L 841,778 L 846,783 L 846,765 Z M 709,765 L 709,772 L 708,773 L 708,784 L 707,785 L 707,786 L 708,786 L 710,784 L 710,783 L 714,779 L 715,779 L 716,778 L 718,778 L 719,777 L 733,777 L 734,778 L 734,847 L 733,848 L 733,849 L 732,850 L 732,851 L 731,852 L 731,853 L 729,855 L 756,855 L 754,853 L 754,852 L 752,850 L 752,778 L 753,777 L 768,777 L 769,778 L 770,778 L 775,783 L 775,784 L 776,785 L 776,786 L 777,786 L 777,777 L 776,776 L 776,765 Z M 659,765 L 662,768 L 662,775 L 661,776 L 661,778 L 660,779 L 660,781 L 659,782 L 659,784 L 658,785 L 658,787 L 657,788 L 657,790 L 656,791 L 656,793 L 655,794 L 655,796 L 654,797 L 654,799 L 653,800 L 653,802 L 652,803 L 652,804 L 651,805 L 651,807 L 650,808 L 650,810 L 649,811 L 649,813 L 648,814 L 648,816 L 647,817 L 647,819 L 646,820 L 646,822 L 645,823 L 645,825 L 644,826 L 644,828 L 643,829 L 643,831 L 642,832 L 642,834 L 641,835 L 641,837 L 640,838 L 640,840 L 639,841 L 639,843 L 638,844 L 638,845 L 637,846 L 637,847 L 636,848 L 636,849 L 630,855 L 652,855 L 649,852 L 649,846 L 650,845 L 650,843 L 651,842 L 651,840 L 652,839 L 652,837 L 653,836 L 653,834 L 654,833 L 683,833 L 684,832 L 686,834 L 686,836 L 687,837 L 687,839 L 688,840 L 688,842 L 689,843 L 689,845 L 690,846 L 690,851 L 686,855 L 687,856 L 688,855 L 715,855 L 711,851 L 711,850 L 709,848 L 709,847 L 708,846 L 708,844 L 707,843 L 707,841 L 706,840 L 706,839 L 705,838 L 705,836 L 704,835 L 704,833 L 703,832 L 703,830 L 702,829 L 702,827 L 701,826 L 701,824 L 700,823 L 700,821 L 699,820 L 699,819 L 698,818 L 698,816 L 697,815 L 697,813 L 696,812 L 696,810 L 695,809 L 695,807 L 694,806 L 694,804 L 693,803 L 693,801 L 692,800 L 692,799 L 691,798 L 691,796 L 690,795 L 690,793 L 689,792 L 689,790 L 688,789 L 688,787 L 687,786 L 687,784 L 686,783 L 686,782 L 685,781 L 685,779 L 684,778 L 684,776 L 683,775 L 683,773 L 682,772 L 682,770 L 681,769 L 681,767 L 680,766 L 680,765 Z M 508,765 L 511,768 L 511,769 L 513,771 L 513,773 L 514,774 L 514,846 L 513,847 L 513,849 L 511,851 L 511,852 L 508,855 L 538,855 L 534,851 L 534,850 L 532,848 L 532,845 L 531,844 L 531,776 L 532,775 L 532,772 L 533,771 L 533,770 L 537,766 L 537,765 Z M 416,765 L 416,766 L 417,766 L 419,768 L 419,769 L 420,770 L 420,771 L 421,772 L 421,778 L 422,779 L 422,785 L 421,786 L 422,787 L 422,789 L 421,790 L 421,792 L 422,793 L 421,794 L 421,798 L 422,799 L 421,800 L 421,807 L 422,808 L 421,809 L 422,810 L 421,811 L 421,818 L 422,819 L 421,820 L 421,822 L 422,823 L 422,824 L 421,825 L 421,827 L 422,828 L 421,829 L 421,835 L 422,836 L 421,837 L 421,848 L 420,849 L 420,850 L 418,852 L 418,853 L 416,855 L 456,855 L 457,854 L 461,854 L 462,853 L 465,853 L 466,852 L 469,852 L 470,851 L 471,851 L 472,850 L 473,850 L 474,849 L 475,849 L 476,848 L 477,848 L 479,846 L 480,846 L 487,839 L 487,838 L 489,836 L 489,835 L 490,834 L 490,833 L 491,832 L 491,831 L 492,830 L 492,828 L 493,827 L 493,824 L 494,823 L 494,819 L 495,818 L 495,801 L 494,800 L 494,795 L 493,794 L 493,791 L 492,790 L 492,789 L 491,788 L 491,786 L 489,784 L 489,783 L 487,781 L 487,780 L 482,775 L 481,775 L 479,773 L 478,773 L 476,771 L 475,771 L 474,770 L 472,770 L 471,769 L 470,769 L 469,768 L 466,768 L 465,767 L 462,767 L 461,766 L 456,766 L 455,765 Z M 323,765 L 323,766 L 327,770 L 327,771 L 328,772 L 328,775 L 329,776 L 329,845 L 328,846 L 328,848 L 327,849 L 327,851 L 323,855 L 346,855 L 341,850 L 341,848 L 340,847 L 340,792 L 341,791 L 343,793 L 343,794 L 344,795 L 344,796 L 347,799 L 347,800 L 349,802 L 349,803 L 351,805 L 351,806 L 353,808 L 353,809 L 355,811 L 355,812 L 356,813 L 356,814 L 358,816 L 358,817 L 360,819 L 360,820 L 362,822 L 362,823 L 364,825 L 364,826 L 366,828 L 366,829 L 368,831 L 368,832 L 370,834 L 370,835 L 372,837 L 372,838 L 373,839 L 373,840 L 375,842 L 375,843 L 377,845 L 377,846 L 379,848 L 379,849 L 381,851 L 381,852 L 382,853 L 382,854 L 383,855 L 396,855 L 396,774 L 397,773 L 397,771 L 398,770 L 398,769 L 402,765 L 378,765 L 380,767 L 381,767 L 382,768 L 382,769 L 384,771 L 384,773 L 385,774 L 385,822 L 384,823 L 382,821 L 382,820 L 379,817 L 379,816 L 378,815 L 378,814 L 376,812 L 376,811 L 374,809 L 374,808 L 372,806 L 372,805 L 370,803 L 370,802 L 369,801 L 369,800 L 367,798 L 367,797 L 365,795 L 365,794 L 363,792 L 363,791 L 361,789 L 361,788 L 360,787 L 360,786 L 358,784 L 358,783 L 356,781 L 356,780 L 354,778 L 354,777 L 352,775 L 352,774 L 350,772 L 350,771 L 348,769 L 348,768 L 346,766 L 346,765 Z M 236,765 L 243,772 L 243,773 L 245,775 L 245,776 L 247,778 L 247,779 L 248,780 L 248,781 L 249,782 L 249,783 L 251,785 L 251,786 L 252,787 L 252,788 L 253,789 L 253,790 L 254,791 L 254,792 L 255,793 L 255,794 L 256,795 L 256,796 L 257,797 L 257,798 L 259,800 L 259,801 L 260,802 L 260,803 L 261,804 L 261,805 L 262,806 L 262,807 L 264,809 L 264,810 L 265,811 L 265,812 L 266,813 L 266,814 L 267,815 L 267,816 L 268,817 L 268,845 L 267,846 L 267,849 L 266,850 L 266,851 L 262,855 L 291,855 L 290,854 L 289,854 L 287,852 L 287,851 L 286,850 L 286,849 L 285,848 L 285,816 L 286,815 L 286,814 L 287,813 L 287,812 L 288,811 L 288,810 L 289,809 L 289,808 L 290,807 L 290,806 L 291,805 L 291,804 L 292,803 L 292,802 L 293,801 L 293,800 L 294,799 L 294,798 L 295,797 L 295,796 L 296,795 L 296,794 L 297,793 L 297,792 L 298,791 L 298,790 L 300,788 L 300,787 L 301,786 L 301,785 L 302,784 L 302,783 L 303,782 L 303,781 L 304,780 L 304,779 L 306,777 L 306,776 L 308,774 L 308,773 L 315,766 L 315,765 L 292,765 L 295,768 L 295,773 L 294,774 L 294,775 L 293,776 L 293,777 L 292,778 L 292,779 L 291,780 L 291,781 L 290,782 L 290,783 L 289,784 L 289,785 L 288,786 L 288,787 L 287,788 L 287,789 L 286,790 L 286,791 L 285,792 L 285,793 L 284,794 L 284,795 L 283,796 L 283,797 L 282,798 L 282,799 L 281,800 L 281,801 L 279,803 L 278,802 L 278,801 L 277,800 L 277,799 L 276,798 L 276,797 L 275,796 L 275,795 L 274,794 L 274,793 L 273,792 L 273,791 L 272,790 L 272,789 L 271,788 L 271,787 L 270,786 L 270,785 L 269,784 L 269,783 L 268,782 L 268,780 L 267,779 L 267,778 L 266,777 L 266,776 L 265,775 L 265,774 L 264,773 L 264,772 L 263,771 L 263,769 L 266,766 L 266,765 Z M 589,763 L 588,764 L 584,764 L 583,765 L 581,765 L 580,766 L 578,766 L 577,767 L 576,767 L 575,768 L 574,768 L 572,770 L 571,770 L 569,772 L 568,772 L 562,778 L 562,779 L 559,782 L 559,783 L 557,785 L 557,786 L 556,787 L 556,788 L 555,789 L 555,791 L 554,792 L 554,794 L 553,795 L 553,797 L 552,798 L 552,803 L 551,804 L 551,815 L 552,816 L 552,822 L 553,823 L 553,825 L 554,826 L 554,828 L 555,829 L 555,831 L 556,832 L 556,833 L 557,834 L 557,835 L 559,837 L 559,838 L 561,840 L 561,841 L 568,848 L 569,848 L 571,850 L 572,850 L 574,852 L 575,852 L 576,853 L 577,853 L 578,854 L 580,854 L 581,855 L 583,855 L 584,856 L 586,856 L 587,857 L 606,857 L 607,856 L 610,856 L 611,855 L 614,855 L 615,854 L 617,854 L 618,853 L 620,853 L 621,852 L 622,852 L 623,851 L 623,842 L 624,841 L 624,832 L 623,832 L 623,833 L 621,835 L 621,836 L 617,840 L 616,840 L 614,842 L 613,842 L 612,843 L 611,843 L 610,844 L 608,844 L 607,845 L 605,845 L 604,846 L 594,846 L 593,845 L 590,845 L 589,844 L 587,844 L 586,843 L 585,843 L 583,841 L 582,841 L 578,837 L 578,836 L 576,834 L 576,833 L 575,832 L 575,831 L 574,830 L 574,828 L 573,827 L 573,824 L 572,823 L 572,818 L 571,817 L 571,801 L 572,800 L 572,796 L 573,795 L 573,793 L 574,792 L 574,790 L 575,789 L 575,788 L 576,787 L 576,786 L 579,783 L 579,782 L 583,778 L 584,778 L 586,776 L 587,776 L 588,775 L 590,775 L 591,774 L 596,774 L 597,773 L 598,773 L 599,774 L 604,774 L 605,775 L 606,775 L 607,776 L 608,776 L 609,777 L 610,777 L 612,779 L 613,779 L 619,785 L 619,786 L 621,788 L 621,764 L 620,764 L 618,766 L 612,766 L 611,765 L 608,765 L 607,764 L 604,764 L 603,763 Z M 194,763 L 193,764 L 190,764 L 189,765 L 188,765 L 187,766 L 186,766 L 185,767 L 184,767 L 183,768 L 182,768 L 176,774 L 176,775 L 174,777 L 174,778 L 173,779 L 173,781 L 172,782 L 172,795 L 173,796 L 173,798 L 174,799 L 174,801 L 176,803 L 176,804 L 180,808 L 181,808 L 184,811 L 185,811 L 186,812 L 187,812 L 189,814 L 190,814 L 191,815 L 192,815 L 193,816 L 194,816 L 195,817 L 196,817 L 197,818 L 198,818 L 199,819 L 200,819 L 201,820 L 202,820 L 204,822 L 205,822 L 206,823 L 207,823 L 213,829 L 213,831 L 214,832 L 214,838 L 213,839 L 213,840 L 212,841 L 212,842 L 210,844 L 209,844 L 207,846 L 206,846 L 205,847 L 202,847 L 201,848 L 194,848 L 193,847 L 190,847 L 189,846 L 187,846 L 185,844 L 184,844 L 183,843 L 182,843 L 175,836 L 175,835 L 172,832 L 172,831 L 171,831 L 171,839 L 172,840 L 172,850 L 173,851 L 173,856 L 174,856 L 175,855 L 184,855 L 185,856 L 189,856 L 190,857 L 208,857 L 209,856 L 212,856 L 213,855 L 214,855 L 215,854 L 216,854 L 218,852 L 219,852 L 225,846 L 225,845 L 226,844 L 226,843 L 227,842 L 227,840 L 228,839 L 228,837 L 229,836 L 229,826 L 228,825 L 228,823 L 227,822 L 227,820 L 226,819 L 226,818 L 224,816 L 224,815 L 221,812 L 220,812 L 218,810 L 217,810 L 215,808 L 214,808 L 213,807 L 212,807 L 211,806 L 210,806 L 209,805 L 208,805 L 207,804 L 206,804 L 205,803 L 204,803 L 203,802 L 202,802 L 201,801 L 200,801 L 199,800 L 198,800 L 197,799 L 196,799 L 194,797 L 193,797 L 188,792 L 188,791 L 187,790 L 187,788 L 186,787 L 186,783 L 187,782 L 187,780 L 189,778 L 189,777 L 190,776 L 191,776 L 193,774 L 195,774 L 196,773 L 204,773 L 205,774 L 207,774 L 208,775 L 210,775 L 211,776 L 212,776 L 213,777 L 214,777 L 216,779 L 217,779 L 222,784 L 222,785 L 223,786 L 223,787 L 224,787 L 224,778 L 223,777 L 223,765 L 222,765 L 221,766 L 216,766 L 215,765 L 213,765 L 212,764 L 208,764 L 207,763 Z M 430,636 L 431,635 L 446,635 L 447,636 L 449,636 L 450,637 L 452,637 L 453,638 L 454,638 L 455,639 L 456,639 L 457,640 L 458,640 L 463,645 L 463,646 L 465,648 L 465,649 L 466,650 L 466,651 L 467,652 L 467,653 L 468,654 L 468,656 L 469,657 L 469,661 L 470,662 L 470,673 L 471,674 L 471,681 L 470,682 L 470,692 L 469,693 L 469,697 L 468,698 L 468,700 L 467,701 L 467,702 L 466,703 L 466,704 L 465,705 L 465,706 L 463,708 L 463,709 L 460,712 L 459,712 L 457,714 L 456,714 L 455,715 L 454,715 L 453,716 L 451,716 L 450,717 L 447,717 L 446,718 L 431,718 L 430,717 Z M 626,635 L 627,634 L 640,634 L 641,635 L 643,635 L 644,636 L 645,636 L 647,638 L 648,638 L 655,645 L 655,646 L 656,647 L 656,648 L 657,649 L 657,650 L 658,651 L 658,652 L 659,653 L 659,655 L 660,656 L 660,659 L 661,660 L 661,663 L 662,664 L 662,674 L 663,675 L 663,683 L 662,684 L 662,693 L 661,694 L 661,698 L 660,699 L 660,702 L 659,703 L 659,704 L 658,705 L 658,706 L 657,707 L 657,708 L 655,710 L 655,711 L 650,716 L 649,716 L 647,718 L 646,718 L 645,719 L 643,719 L 642,720 L 640,720 L 639,721 L 631,721 L 630,720 L 627,720 L 626,719 L 625,719 L 624,718 L 623,718 L 622,717 L 621,717 L 613,709 L 613,708 L 611,706 L 611,705 L 610,704 L 610,702 L 609,701 L 609,700 L 608,699 L 608,696 L 607,695 L 607,690 L 606,689 L 606,666 L 607,665 L 607,659 L 608,658 L 608,655 L 609,654 L 609,652 L 610,651 L 610,650 L 611,649 L 611,648 L 612,647 L 612,646 L 613,645 L 613,644 L 620,637 L 621,637 L 622,636 L 623,636 L 624,635 Z M 799,623 L 803,627 L 803,628 L 805,630 L 805,633 L 806,634 L 806,719 L 805,720 L 805,723 L 804,724 L 804,725 L 801,728 L 801,729 L 800,730 L 800,731 L 801,730 L 831,730 L 831,729 L 828,726 L 828,725 L 827,724 L 827,723 L 826,722 L 826,691 L 831,686 L 831,685 L 835,681 L 837,683 L 837,684 L 838,685 L 838,686 L 840,688 L 840,689 L 841,690 L 841,691 L 843,693 L 843,694 L 844,695 L 844,696 L 845,697 L 845,698 L 847,700 L 847,701 L 848,702 L 848,703 L 849,704 L 849,705 L 851,707 L 851,708 L 852,709 L 852,710 L 853,711 L 853,712 L 855,714 L 855,715 L 856,716 L 856,717 L 857,718 L 857,719 L 858,720 L 858,721 L 859,722 L 859,723 L 860,724 L 860,727 L 859,728 L 859,729 L 858,730 L 892,730 L 891,729 L 890,729 L 887,726 L 886,726 L 883,723 L 883,722 L 879,718 L 879,717 L 876,714 L 876,713 L 875,712 L 875,711 L 873,709 L 873,708 L 871,706 L 871,705 L 870,704 L 870,703 L 869,702 L 869,701 L 867,699 L 867,698 L 866,697 L 866,696 L 864,694 L 864,693 L 863,692 L 863,691 L 861,689 L 861,688 L 860,687 L 860,686 L 859,685 L 859,684 L 857,682 L 857,681 L 856,680 L 856,679 L 854,677 L 854,676 L 853,675 L 853,674 L 851,672 L 851,671 L 850,670 L 850,669 L 849,668 L 849,667 L 848,666 L 848,665 L 850,663 L 850,662 L 854,658 L 854,657 L 856,655 L 856,654 L 860,650 L 860,649 L 862,647 L 862,646 L 866,642 L 866,641 L 882,625 L 883,625 L 884,624 L 884,623 L 854,623 L 854,624 L 857,627 L 857,631 L 856,632 L 856,633 L 854,635 L 854,636 L 852,638 L 852,639 L 850,641 L 850,642 L 847,645 L 847,646 L 845,648 L 845,649 L 842,652 L 842,653 L 839,656 L 839,657 L 835,661 L 835,662 L 831,666 L 831,667 L 828,670 L 828,671 L 827,672 L 826,671 L 826,635 L 827,634 L 827,631 L 829,629 L 829,628 L 832,625 L 832,624 L 833,623 Z M 507,623 L 511,627 L 511,628 L 512,629 L 512,630 L 513,631 L 513,633 L 514,634 L 514,719 L 513,720 L 513,722 L 512,723 L 512,724 L 511,725 L 511,726 L 508,729 L 508,731 L 509,730 L 571,730 L 572,731 L 573,730 L 573,712 L 574,711 L 574,706 L 572,706 L 572,707 L 569,710 L 569,711 L 567,713 L 566,713 L 563,716 L 562,716 L 561,717 L 559,717 L 558,718 L 534,718 L 533,717 L 533,636 L 534,635 L 534,631 L 535,630 L 535,629 L 539,625 L 539,624 L 540,623 Z M 404,623 L 404,624 L 407,627 L 407,628 L 408,629 L 408,630 L 409,631 L 409,632 L 410,633 L 410,719 L 409,720 L 409,722 L 408,723 L 408,724 L 407,725 L 407,726 L 404,729 L 404,731 L 405,730 L 449,730 L 450,729 L 455,729 L 456,728 L 459,728 L 460,727 L 462,727 L 463,726 L 464,726 L 465,725 L 467,725 L 469,723 L 470,723 L 471,722 L 472,722 L 474,720 L 475,720 L 483,712 L 483,711 L 485,709 L 485,708 L 486,707 L 486,706 L 487,705 L 487,704 L 488,703 L 488,702 L 489,701 L 489,699 L 490,698 L 490,696 L 491,695 L 491,692 L 492,691 L 492,685 L 493,684 L 493,666 L 492,665 L 492,660 L 491,659 L 491,656 L 490,655 L 490,653 L 489,652 L 489,651 L 488,650 L 488,649 L 487,648 L 487,647 L 486,646 L 486,645 L 484,643 L 484,642 L 477,635 L 476,635 L 473,632 L 472,632 L 471,631 L 470,631 L 469,630 L 468,630 L 467,629 L 466,629 L 465,628 L 463,628 L 462,627 L 460,627 L 459,626 L 456,626 L 455,625 L 451,625 L 450,624 L 445,624 L 444,623 Z M 299,623 L 300,624 L 300,625 L 304,629 L 304,630 L 305,631 L 305,633 L 306,634 L 306,720 L 305,721 L 305,723 L 304,724 L 304,725 L 300,729 L 300,730 L 301,731 L 302,730 L 324,730 L 325,731 L 325,730 L 323,728 L 323,727 L 321,725 L 321,724 L 320,723 L 320,722 L 319,721 L 319,657 L 318,656 L 318,655 L 319,654 L 321,656 L 321,657 L 323,659 L 323,660 L 325,662 L 325,663 L 326,664 L 326,665 L 328,667 L 328,668 L 330,670 L 330,671 L 331,672 L 331,673 L 333,675 L 333,676 L 335,678 L 335,679 L 336,680 L 336,681 L 338,683 L 338,684 L 340,686 L 340,687 L 341,688 L 341,689 L 343,691 L 343,692 L 344,693 L 344,694 L 346,696 L 346,697 L 348,699 L 348,700 L 349,701 L 349,702 L 351,704 L 351,705 L 353,707 L 353,708 L 354,709 L 354,710 L 356,712 L 356,713 L 357,714 L 357,715 L 359,717 L 359,718 L 361,720 L 361,721 L 362,722 L 362,723 L 364,725 L 364,726 L 366,728 L 366,729 L 367,730 L 382,730 L 381,729 L 381,636 L 382,635 L 382,632 L 383,631 L 383,630 L 384,629 L 384,628 L 389,623 L 362,623 L 362,624 L 368,630 L 368,633 L 369,634 L 369,693 L 368,694 L 366,692 L 366,691 L 364,689 L 364,688 L 363,687 L 363,686 L 361,684 L 361,683 L 359,681 L 359,680 L 358,679 L 358,678 L 356,676 L 356,675 L 355,674 L 355,673 L 353,671 L 353,670 L 352,669 L 352,668 L 350,666 L 350,665 L 349,664 L 349,663 L 347,661 L 347,660 L 346,659 L 346,658 L 344,656 L 344,655 L 342,653 L 342,652 L 341,651 L 341,650 L 339,648 L 339,647 L 338,646 L 338,645 L 336,643 L 336,642 L 335,641 L 335,640 L 334,639 L 334,638 L 332,636 L 332,635 L 331,634 L 331,633 L 329,631 L 329,630 L 327,628 L 327,627 L 326,626 L 326,625 L 324,623 Z M 252,623 L 252,625 L 255,628 L 255,629 L 256,630 L 256,631 L 257,632 L 257,721 L 256,722 L 256,723 L 255,724 L 255,725 L 252,728 L 252,729 L 251,730 L 282,730 L 283,731 L 284,730 L 279,725 L 279,724 L 278,723 L 278,720 L 277,719 L 277,635 L 278,634 L 278,631 L 279,630 L 279,629 L 283,625 L 283,623 Z M 126,623 L 126,624 L 130,628 L 130,629 L 131,630 L 131,631 L 132,632 L 132,634 L 133,635 L 133,654 L 132,655 L 132,679 L 131,680 L 131,703 L 130,704 L 130,720 L 129,721 L 129,723 L 128,724 L 128,725 L 124,729 L 124,731 L 125,730 L 147,730 L 148,731 L 149,730 L 144,725 L 144,723 L 143,722 L 143,718 L 142,717 L 142,714 L 143,713 L 143,683 L 144,682 L 144,654 L 145,653 L 146,654 L 146,655 L 147,656 L 147,658 L 148,659 L 148,661 L 149,662 L 149,663 L 150,664 L 150,665 L 151,666 L 151,668 L 152,669 L 152,670 L 153,671 L 153,673 L 154,674 L 154,675 L 155,676 L 155,678 L 156,679 L 156,680 L 157,681 L 157,683 L 158,684 L 158,685 L 159,686 L 159,688 L 160,689 L 160,690 L 161,691 L 161,693 L 162,694 L 162,695 L 163,696 L 163,698 L 164,699 L 164,700 L 165,701 L 165,703 L 166,704 L 166,705 L 167,706 L 167,708 L 168,709 L 168,710 L 169,711 L 169,712 L 170,713 L 170,715 L 171,716 L 171,717 L 172,718 L 172,720 L 173,721 L 173,722 L 174,723 L 174,724 L 175,725 L 175,726 L 176,727 L 176,728 L 177,729 L 177,731 L 178,730 L 178,728 L 179,727 L 179,726 L 180,725 L 180,724 L 181,723 L 181,722 L 182,721 L 182,719 L 183,718 L 183,717 L 184,716 L 184,714 L 185,713 L 185,712 L 186,711 L 186,709 L 187,708 L 187,707 L 188,706 L 188,704 L 189,703 L 189,701 L 190,700 L 190,699 L 191,698 L 191,696 L 192,695 L 192,694 L 193,693 L 193,691 L 194,690 L 194,689 L 195,688 L 195,686 L 196,685 L 196,683 L 197,682 L 197,681 L 198,680 L 198,678 L 199,677 L 199,676 L 200,675 L 200,673 L 201,672 L 201,671 L 202,670 L 202,668 L 203,667 L 203,666 L 204,665 L 204,663 L 205,662 L 205,661 L 206,660 L 206,658 L 207,657 L 207,655 L 208,654 L 209,655 L 209,669 L 210,670 L 210,685 L 211,686 L 211,704 L 212,705 L 212,720 L 211,721 L 211,723 L 210,724 L 210,725 L 206,729 L 205,729 L 204,730 L 205,731 L 206,730 L 239,730 L 239,729 L 238,728 L 237,728 L 234,725 L 234,724 L 233,723 L 233,722 L 232,721 L 232,716 L 231,715 L 231,695 L 230,694 L 230,676 L 229,675 L 229,656 L 228,655 L 228,634 L 229,633 L 229,631 L 230,630 L 230,629 L 235,624 L 235,623 L 206,623 L 206,625 L 205,626 L 205,627 L 204,628 L 204,630 L 203,631 L 203,633 L 202,634 L 202,636 L 201,637 L 201,638 L 200,639 L 200,641 L 199,642 L 199,644 L 198,645 L 198,647 L 197,648 L 197,649 L 196,650 L 196,652 L 195,653 L 195,655 L 194,656 L 194,658 L 193,659 L 193,660 L 192,661 L 192,663 L 191,664 L 191,666 L 190,667 L 190,668 L 189,669 L 189,671 L 188,672 L 188,674 L 187,675 L 187,677 L 186,678 L 186,679 L 185,680 L 185,682 L 184,683 L 184,685 L 183,686 L 183,687 L 182,688 L 182,690 L 181,691 L 180,690 L 180,688 L 179,687 L 179,686 L 178,685 L 178,683 L 177,682 L 177,680 L 176,679 L 176,678 L 175,677 L 175,675 L 174,674 L 174,673 L 173,672 L 173,670 L 172,669 L 172,667 L 171,666 L 171,664 L 170,663 L 170,662 L 169,661 L 169,659 L 168,658 L 168,657 L 167,656 L 167,654 L 166,653 L 166,651 L 165,650 L 165,649 L 164,648 L 164,646 L 163,645 L 163,643 L 162,642 L 162,641 L 161,640 L 161,638 L 160,637 L 160,635 L 159,634 L 159,633 L 158,632 L 158,630 L 157,629 L 157,627 L 156,626 L 156,625 L 155,624 L 155,623 Z M 746,621 L 745,622 L 740,622 L 739,623 L 737,623 L 736,624 L 734,624 L 733,625 L 731,625 L 730,626 L 729,626 L 727,628 L 726,628 L 725,629 L 724,629 L 722,631 L 721,631 L 711,641 L 711,642 L 708,645 L 708,646 L 707,647 L 707,648 L 706,649 L 706,650 L 705,651 L 705,652 L 704,653 L 704,654 L 703,655 L 703,657 L 702,658 L 702,661 L 701,662 L 701,665 L 700,666 L 700,689 L 701,690 L 701,693 L 702,694 L 702,697 L 703,698 L 703,700 L 704,701 L 704,702 L 705,703 L 705,704 L 706,705 L 706,706 L 707,707 L 707,708 L 709,710 L 709,711 L 711,713 L 711,714 L 718,721 L 719,721 L 722,724 L 723,724 L 725,726 L 726,726 L 727,727 L 728,727 L 729,728 L 730,728 L 731,729 L 733,729 L 734,730 L 736,730 L 737,731 L 740,731 L 741,732 L 746,732 L 747,733 L 756,733 L 757,732 L 764,732 L 765,731 L 769,731 L 770,730 L 773,730 L 774,729 L 776,729 L 777,728 L 778,728 L 779,727 L 780,727 L 781,726 L 782,726 L 783,725 L 783,717 L 784,716 L 784,704 L 785,703 L 785,702 L 784,701 L 783,701 L 783,702 L 782,703 L 782,704 L 780,706 L 780,707 L 775,712 L 774,712 L 772,714 L 771,714 L 769,716 L 768,716 L 767,717 L 765,717 L 764,718 L 761,718 L 760,719 L 748,719 L 747,718 L 744,718 L 743,717 L 742,717 L 741,716 L 740,716 L 739,715 L 738,715 L 736,713 L 735,713 L 731,709 L 731,708 L 729,706 L 729,705 L 728,704 L 728,703 L 727,702 L 727,701 L 726,700 L 726,698 L 725,697 L 725,694 L 724,693 L 724,689 L 723,688 L 723,664 L 724,663 L 724,659 L 725,658 L 725,656 L 726,655 L 726,654 L 727,653 L 727,652 L 728,651 L 728,650 L 729,649 L 729,648 L 731,646 L 731,645 L 737,639 L 738,639 L 740,637 L 741,637 L 742,636 L 744,636 L 745,635 L 747,635 L 748,634 L 760,634 L 761,635 L 763,635 L 764,636 L 765,636 L 766,637 L 767,637 L 768,638 L 769,638 L 780,649 L 780,650 L 781,651 L 782,651 L 782,631 L 781,630 L 782,629 L 782,627 L 781,626 L 781,623 L 780,623 L 778,625 L 772,625 L 771,624 L 768,624 L 767,623 L 764,623 L 763,622 L 759,622 L 758,621 Z M 632,621 L 631,622 L 625,622 L 624,623 L 621,623 L 620,624 L 618,624 L 617,625 L 615,625 L 614,626 L 613,626 L 612,627 L 611,627 L 610,628 L 609,628 L 607,630 L 606,630 L 603,633 L 602,633 L 596,639 L 596,640 L 593,643 L 593,644 L 592,645 L 592,646 L 590,648 L 590,649 L 589,650 L 589,651 L 588,652 L 588,654 L 587,655 L 587,657 L 586,658 L 586,660 L 585,661 L 585,665 L 584,666 L 584,688 L 585,689 L 585,693 L 586,694 L 586,697 L 587,698 L 587,700 L 588,701 L 588,702 L 589,703 L 589,705 L 590,706 L 590,707 L 592,709 L 592,710 L 594,712 L 594,713 L 598,717 L 598,718 L 600,720 L 601,720 L 605,724 L 606,724 L 608,726 L 609,726 L 610,727 L 611,727 L 612,728 L 613,728 L 614,729 L 616,729 L 617,730 L 619,730 L 620,731 L 623,731 L 624,732 L 630,732 L 631,733 L 637,733 L 638,732 L 644,732 L 645,731 L 648,731 L 649,730 L 651,730 L 652,729 L 654,729 L 655,728 L 656,728 L 657,727 L 658,727 L 660,725 L 661,725 L 663,723 L 664,723 L 667,720 L 668,720 L 668,719 L 669,718 L 670,718 L 670,717 L 674,713 L 674,712 L 676,710 L 676,709 L 678,707 L 678,706 L 679,705 L 679,703 L 680,702 L 680,701 L 681,700 L 681,698 L 682,697 L 682,695 L 683,694 L 683,690 L 684,689 L 684,680 L 685,679 L 685,672 L 684,671 L 684,665 L 683,664 L 683,660 L 682,659 L 682,657 L 681,656 L 681,654 L 680,653 L 680,652 L 679,651 L 679,650 L 678,649 L 678,648 L 677,647 L 677,646 L 676,645 L 676,644 L 673,641 L 673,640 L 665,632 L 664,632 L 661,629 L 660,629 L 659,628 L 658,628 L 657,627 L 656,627 L 655,626 L 654,626 L 653,625 L 652,625 L 651,624 L 649,624 L 648,623 L 644,623 L 643,622 L 636,622 L 635,621 Z M 437,545 L 437,553 L 436,554 L 436,556 L 437,556 L 437,555 L 439,553 L 440,553 L 442,551 L 450,551 L 452,553 L 451,554 L 451,594 L 449,596 L 450,597 L 463,597 L 463,596 L 462,595 L 462,594 L 461,593 L 461,552 L 462,551 L 469,551 L 470,552 L 471,552 L 474,555 L 474,556 L 475,556 L 475,555 L 474,554 L 474,545 Z M 551,544 L 550,545 L 552,547 L 552,548 L 553,549 L 553,591 L 552,592 L 552,594 L 550,596 L 550,597 L 551,597 L 552,596 L 554,596 L 555,597 L 558,597 L 559,596 L 566,596 L 567,597 L 568,596 L 570,596 L 571,597 L 572,596 L 573,597 L 574,597 L 575,596 L 576,597 L 579,597 L 580,596 L 582,596 L 583,597 L 584,596 L 584,587 L 585,586 L 585,585 L 584,585 L 584,586 L 581,589 L 580,589 L 579,590 L 576,590 L 575,591 L 566,591 L 565,590 L 564,591 L 562,589 L 562,577 L 563,576 L 562,575 L 564,573 L 574,573 L 575,574 L 577,574 L 579,576 L 580,576 L 580,564 L 579,564 L 577,566 L 576,566 L 575,567 L 564,567 L 563,566 L 563,551 L 564,550 L 576,550 L 577,551 L 578,551 L 579,552 L 580,552 L 582,554 L 583,554 L 583,549 L 582,548 L 582,546 L 583,545 L 552,545 Z M 494,544 L 493,545 L 489,545 L 491,547 L 491,548 L 492,549 L 492,591 L 491,592 L 491,594 L 489,596 L 489,597 L 501,597 L 502,596 L 503,597 L 504,597 L 504,596 L 502,594 L 502,593 L 501,592 L 501,573 L 502,572 L 522,572 L 523,573 L 523,592 L 522,593 L 522,594 L 521,595 L 521,597 L 534,597 L 535,596 L 533,594 L 533,593 L 532,592 L 532,549 L 533,548 L 533,547 L 535,545 L 535,544 L 526,544 L 525,545 L 524,545 L 523,544 L 522,545 L 521,544 L 520,545 L 522,547 L 522,548 L 523,549 L 523,564 L 522,565 L 502,565 L 501,564 L 501,549 L 502,548 L 502,547 L 504,545 L 504,544 L 503,544 L 502,545 L 501,544 L 500,544 L 499,545 L 498,544 L 497,544 L 496,545 L 495,544 Z M 505,418 L 506,417 L 516,417 L 517,418 L 518,418 L 519,419 L 520,419 L 522,421 L 523,421 L 525,423 L 525,424 L 527,426 L 527,427 L 528,428 L 528,431 L 529,432 L 529,435 L 528,436 L 528,439 L 527,440 L 527,441 L 526,442 L 526,443 L 520,449 L 520,452 L 521,453 L 521,457 L 522,458 L 522,461 L 523,462 L 523,465 L 524,466 L 524,469 L 525,470 L 525,473 L 526,474 L 526,477 L 527,478 L 527,481 L 528,482 L 527,483 L 496,483 L 495,482 L 495,481 L 496,480 L 496,477 L 497,476 L 497,473 L 498,472 L 498,469 L 499,468 L 499,465 L 500,464 L 500,460 L 501,459 L 501,456 L 502,455 L 502,452 L 503,451 L 503,450 L 496,443 L 496,442 L 495,441 L 495,439 L 494,438 L 494,429 L 495,428 L 495,427 L 496,426 L 496,425 L 502,419 L 503,419 L 504,418 Z M 838,399 L 839,400 L 839,402 L 840,403 L 840,414 L 839,415 L 839,418 L 838,419 L 838,421 L 837,422 L 837,424 L 836,425 L 836,426 L 835,427 L 835,428 L 834,429 L 834,430 L 837,427 L 837,426 L 839,424 L 839,423 L 840,422 L 840,420 L 841,419 L 841,417 L 842,416 L 842,404 L 841,403 L 841,402 L 840,401 L 840,400 L 839,399 Z M 771,398 L 770,399 L 770,400 L 769,401 L 769,403 L 768,404 L 768,406 L 767,407 L 767,418 L 768,419 L 768,422 L 769,423 L 769,424 L 770,425 L 770,426 L 771,427 L 771,428 L 772,429 L 773,429 L 773,428 L 772,427 L 772,425 L 771,424 L 771,422 L 770,421 L 770,415 L 769,414 L 769,412 L 770,411 L 770,403 L 771,402 Z M 254,398 L 254,402 L 255,403 L 255,409 L 256,410 L 256,412 L 255,413 L 255,418 L 254,419 L 254,422 L 253,423 L 253,424 L 252,425 L 252,427 L 251,428 L 251,429 L 252,429 L 253,428 L 253,427 L 255,425 L 255,424 L 256,423 L 256,422 L 257,421 L 257,419 L 258,418 L 258,407 L 257,406 L 257,403 L 256,402 L 256,401 L 255,400 L 255,399 Z M 186,398 L 185,399 L 185,400 L 184,401 L 184,402 L 183,403 L 183,406 L 182,407 L 182,418 L 183,419 L 183,422 L 184,423 L 184,424 L 185,425 L 185,426 L 187,428 L 187,429 L 188,430 L 189,430 L 188,429 L 188,427 L 187,426 L 187,425 L 186,424 L 186,422 L 185,421 L 185,419 L 184,418 L 184,406 L 185,405 L 185,403 L 186,402 Z M 801,397 L 802,396 L 807,396 L 808,397 L 810,397 L 812,399 L 813,399 L 815,401 L 815,402 L 817,404 L 817,405 L 818,406 L 818,414 L 817,415 L 817,417 L 815,419 L 815,420 L 813,422 L 812,422 L 810,424 L 809,424 L 808,425 L 800,425 L 799,424 L 798,424 L 793,419 L 793,418 L 792,417 L 792,415 L 791,414 L 791,408 L 792,407 L 792,405 L 793,404 L 793,403 L 795,401 L 795,400 L 796,399 L 797,399 L 799,397 Z M 216,397 L 217,396 L 221,396 L 222,397 L 224,397 L 225,398 L 226,398 L 231,403 L 231,404 L 232,405 L 232,406 L 233,407 L 233,414 L 232,415 L 232,417 L 231,418 L 231,419 L 227,423 L 226,423 L 225,424 L 224,424 L 223,425 L 216,425 L 215,424 L 214,424 L 213,423 L 212,423 L 209,420 L 209,419 L 208,418 L 208,417 L 207,416 L 207,414 L 206,413 L 206,408 L 207,407 L 207,405 L 208,404 L 208,403 L 210,401 L 210,400 L 211,399 L 212,399 L 214,397 Z M 509,389 L 508,390 L 502,390 L 501,391 L 498,391 L 497,392 L 495,392 L 494,393 L 493,393 L 492,394 L 491,394 L 490,395 L 489,395 L 488,396 L 487,396 L 485,398 L 484,398 L 477,405 L 477,406 L 475,408 L 475,409 L 473,411 L 473,412 L 472,413 L 472,414 L 471,415 L 471,416 L 470,417 L 470,419 L 469,420 L 469,423 L 468,424 L 468,430 L 467,431 L 467,492 L 468,493 L 468,494 L 470,496 L 471,496 L 472,497 L 473,497 L 474,498 L 475,498 L 476,499 L 478,499 L 479,500 L 481,500 L 482,501 L 485,501 L 486,502 L 491,502 L 492,503 L 499,503 L 500,504 L 527,504 L 528,503 L 535,503 L 536,502 L 540,502 L 541,501 L 544,501 L 545,500 L 547,500 L 548,499 L 549,499 L 550,498 L 551,498 L 552,497 L 553,497 L 556,494 L 556,487 L 557,486 L 556,485 L 557,484 L 556,483 L 557,482 L 557,479 L 556,478 L 556,477 L 557,476 L 556,475 L 557,474 L 556,473 L 557,472 L 556,471 L 556,470 L 557,469 L 556,468 L 557,467 L 557,466 L 556,465 L 557,464 L 556,463 L 556,456 L 557,455 L 556,454 L 556,427 L 555,426 L 555,422 L 554,421 L 554,419 L 553,418 L 553,416 L 552,415 L 552,414 L 551,413 L 551,412 L 550,411 L 550,410 L 548,408 L 548,407 L 539,398 L 538,398 L 536,396 L 535,396 L 533,394 L 532,394 L 531,393 L 529,393 L 528,392 L 527,392 L 526,391 L 523,391 L 522,390 L 516,390 L 515,389 Z M 799,388 L 798,389 L 796,389 L 795,390 L 794,390 L 793,391 L 792,391 L 787,396 L 787,397 L 785,399 L 785,400 L 784,401 L 784,403 L 783,404 L 783,406 L 782,407 L 782,414 L 783,415 L 783,418 L 784,419 L 784,421 L 785,422 L 785,423 L 786,424 L 786,425 L 791,430 L 792,430 L 793,431 L 794,431 L 795,432 L 796,432 L 797,433 L 800,433 L 801,434 L 807,434 L 808,433 L 811,433 L 812,432 L 813,432 L 814,431 L 815,431 L 816,430 L 817,430 L 822,425 L 822,424 L 824,422 L 824,420 L 825,419 L 825,418 L 826,417 L 826,414 L 827,413 L 827,408 L 826,407 L 826,404 L 825,403 L 825,401 L 824,400 L 824,399 L 821,396 L 821,395 L 819,393 L 818,393 L 816,391 L 815,391 L 814,390 L 813,390 L 812,389 L 810,389 L 809,388 Z M 216,388 L 215,389 L 212,389 L 211,390 L 210,390 L 209,391 L 208,391 L 206,393 L 205,393 L 203,395 L 203,396 L 201,398 L 201,399 L 200,400 L 200,401 L 199,402 L 199,403 L 198,404 L 198,417 L 199,418 L 199,420 L 200,421 L 200,422 L 201,423 L 201,424 L 207,430 L 208,430 L 210,432 L 212,432 L 213,433 L 216,433 L 217,434 L 222,434 L 223,433 L 227,433 L 228,432 L 229,432 L 230,431 L 231,431 L 232,430 L 233,430 L 238,425 L 238,424 L 239,423 L 239,422 L 240,421 L 240,419 L 241,418 L 241,416 L 242,415 L 242,407 L 241,406 L 241,404 L 240,403 L 240,401 L 238,399 L 238,398 L 237,397 L 237,396 L 233,392 L 232,392 L 230,390 L 228,390 L 227,389 L 225,389 L 224,388 Z M 799,377 L 800,376 L 808,376 L 809,377 L 815,377 L 816,378 L 819,378 L 820,379 L 822,379 L 823,380 L 825,380 L 826,381 L 827,381 L 828,382 L 829,382 L 830,383 L 831,383 L 832,384 L 833,384 L 835,386 L 836,386 L 837,387 L 838,387 L 840,389 L 841,389 L 844,392 L 845,392 L 850,397 L 851,397 L 867,413 L 848,432 L 847,432 L 844,435 L 843,435 L 841,437 L 840,437 L 838,439 L 837,439 L 836,440 L 835,440 L 834,441 L 833,441 L 832,442 L 831,442 L 830,443 L 829,443 L 828,444 L 826,444 L 825,445 L 823,445 L 822,446 L 820,446 L 819,447 L 816,447 L 815,448 L 808,448 L 807,449 L 802,449 L 801,448 L 794,448 L 793,447 L 790,447 L 789,446 L 787,446 L 786,445 L 784,445 L 783,444 L 781,444 L 780,443 L 779,443 L 778,442 L 777,442 L 776,441 L 775,441 L 774,440 L 773,440 L 771,438 L 770,438 L 768,436 L 767,436 L 764,433 L 763,433 L 760,430 L 759,430 L 743,414 L 743,413 L 750,406 L 750,405 L 759,396 L 760,396 L 767,389 L 768,389 L 771,386 L 772,386 L 773,385 L 774,385 L 776,383 L 777,383 L 778,382 L 779,382 L 780,381 L 781,381 L 782,380 L 784,380 L 785,379 L 787,379 L 788,378 L 791,378 L 792,377 Z M 214,377 L 215,376 L 224,376 L 225,377 L 232,377 L 233,378 L 236,378 L 237,379 L 239,379 L 240,380 L 242,380 L 243,381 L 244,381 L 245,382 L 246,382 L 247,383 L 248,383 L 249,384 L 250,384 L 252,386 L 253,386 L 256,389 L 257,389 L 261,393 L 262,393 L 274,405 L 274,406 L 277,409 L 278,409 L 282,413 L 282,414 L 267,429 L 266,429 L 263,432 L 262,432 L 259,435 L 258,435 L 256,437 L 255,437 L 253,439 L 252,439 L 251,440 L 250,440 L 249,441 L 248,441 L 247,442 L 246,442 L 245,443 L 244,443 L 243,444 L 241,444 L 240,445 L 238,445 L 237,446 L 235,446 L 234,447 L 230,447 L 229,448 L 222,448 L 221,449 L 218,449 L 217,448 L 210,448 L 209,447 L 206,447 L 205,446 L 202,446 L 201,445 L 199,445 L 198,444 L 197,444 L 196,443 L 195,443 L 194,442 L 193,442 L 192,441 L 191,441 L 190,440 L 189,440 L 188,439 L 187,439 L 185,437 L 184,437 L 181,434 L 180,434 L 177,431 L 176,431 L 158,413 L 178,393 L 179,393 L 183,389 L 184,389 L 186,387 L 187,387 L 189,385 L 190,385 L 192,383 L 193,383 L 194,382 L 195,382 L 196,381 L 198,381 L 199,380 L 200,380 L 201,379 L 203,379 L 204,378 L 207,378 L 208,377 Z M 795,368 L 794,369 L 790,369 L 789,370 L 786,370 L 785,371 L 783,371 L 782,372 L 780,372 L 779,373 L 777,373 L 776,374 L 775,374 L 774,375 L 773,375 L 772,376 L 771,376 L 770,377 L 769,377 L 767,379 L 766,379 L 764,381 L 763,381 L 761,383 L 760,383 L 757,386 L 756,386 L 749,393 L 748,393 L 742,399 L 742,400 L 733,409 L 733,410 L 730,413 L 730,414 L 734,418 L 734,419 L 750,435 L 751,435 L 755,439 L 756,439 L 758,441 L 759,441 L 762,444 L 763,444 L 764,445 L 765,445 L 767,447 L 768,447 L 769,448 L 770,448 L 771,449 L 772,449 L 773,450 L 774,450 L 775,451 L 777,451 L 778,452 L 779,452 L 780,453 L 782,453 L 783,454 L 786,454 L 787,455 L 790,455 L 791,456 L 795,456 L 796,457 L 812,457 L 813,456 L 818,456 L 819,455 L 822,455 L 823,454 L 825,454 L 826,453 L 828,453 L 829,452 L 830,452 L 831,451 L 833,451 L 834,450 L 835,450 L 836,449 L 837,449 L 838,448 L 839,448 L 840,447 L 841,447 L 842,446 L 843,446 L 845,444 L 846,444 L 847,443 L 848,443 L 850,441 L 851,441 L 854,438 L 855,438 L 858,435 L 859,435 L 875,419 L 875,418 L 879,414 L 879,413 L 877,411 L 877,410 L 870,403 L 870,402 L 862,394 L 861,394 L 855,388 L 854,388 L 851,385 L 850,385 L 847,382 L 846,382 L 845,381 L 844,381 L 842,379 L 841,379 L 840,378 L 839,378 L 838,377 L 837,377 L 836,376 L 835,376 L 834,375 L 833,375 L 832,374 L 831,374 L 830,373 L 828,373 L 827,372 L 825,372 L 824,371 L 822,371 L 821,370 L 818,370 L 817,369 L 812,369 L 811,368 Z M 212,368 L 211,369 L 206,369 L 205,370 L 202,370 L 201,371 L 199,371 L 198,372 L 197,372 L 196,373 L 194,373 L 193,374 L 192,374 L 191,375 L 189,375 L 188,376 L 187,376 L 185,378 L 184,378 L 183,379 L 182,379 L 180,381 L 179,381 L 178,382 L 177,382 L 174,385 L 173,385 L 167,391 L 166,391 L 157,400 L 157,401 L 147,411 L 147,412 L 146,413 L 146,414 L 150,418 L 150,419 L 168,437 L 169,437 L 172,440 L 173,440 L 175,442 L 176,442 L 178,444 L 179,444 L 181,446 L 182,446 L 183,447 L 184,447 L 185,448 L 186,448 L 187,449 L 188,449 L 189,450 L 190,450 L 191,451 L 193,451 L 194,452 L 195,452 L 196,453 L 198,453 L 199,454 L 201,454 L 202,455 L 206,455 L 207,456 L 211,456 L 212,457 L 227,457 L 228,456 L 232,456 L 233,455 L 236,455 L 237,454 L 239,454 L 240,453 L 242,453 L 243,452 L 245,452 L 246,451 L 248,451 L 249,450 L 250,450 L 251,449 L 252,449 L 253,448 L 254,448 L 255,447 L 256,447 L 257,446 L 258,446 L 260,444 L 261,444 L 262,443 L 263,443 L 265,441 L 266,441 L 268,439 L 269,439 L 272,436 L 273,436 L 277,432 L 278,432 L 290,420 L 290,419 L 295,414 L 295,413 L 290,408 L 290,407 L 272,389 L 271,389 L 267,385 L 266,385 L 264,383 L 263,383 L 261,381 L 260,381 L 258,379 L 257,379 L 255,377 L 254,377 L 253,376 L 252,376 L 251,375 L 250,375 L 249,374 L 247,374 L 246,373 L 245,373 L 244,372 L 242,372 L 241,371 L 239,371 L 238,370 L 235,370 L 234,369 L 228,369 L 227,368 Z M 708,328 L 704,332 L 703,332 L 694,341 L 694,346 L 693,347 L 693,352 L 692,353 L 692,356 L 691,357 L 691,361 L 690,362 L 690,364 L 689,365 L 689,368 L 688,369 L 688,371 L 687,372 L 687,374 L 686,375 L 686,377 L 685,378 L 685,380 L 684,381 L 684,383 L 683,384 L 683,385 L 682,386 L 682,388 L 681,389 L 681,390 L 680,391 L 680,392 L 679,393 L 679,395 L 678,396 L 678,397 L 677,398 L 677,399 L 676,400 L 676,401 L 675,402 L 675,403 L 673,405 L 673,406 L 672,407 L 672,408 L 671,409 L 671,410 L 669,412 L 669,413 L 667,415 L 667,416 L 665,418 L 665,419 L 663,421 L 663,422 L 660,425 L 660,426 L 657,429 L 657,430 L 652,435 L 652,436 L 632,456 L 631,456 L 626,461 L 625,461 L 622,464 L 621,464 L 618,467 L 617,467 L 615,469 L 614,469 L 612,471 L 611,471 L 609,473 L 608,473 L 607,474 L 606,474 L 604,476 L 603,476 L 602,477 L 601,477 L 600,478 L 599,478 L 598,479 L 597,479 L 596,480 L 595,480 L 594,481 L 593,481 L 592,482 L 591,482 L 590,483 L 589,483 L 588,484 L 587,484 L 586,485 L 585,485 L 584,486 L 582,486 L 581,487 L 580,487 L 579,488 L 577,488 L 576,489 L 574,489 L 573,490 L 571,490 L 570,491 L 568,491 L 568,493 L 567,494 L 567,497 L 566,498 L 566,499 L 564,501 L 564,502 L 560,506 L 559,506 L 559,507 L 560,506 L 562,506 L 563,505 L 567,505 L 568,504 L 570,504 L 571,503 L 574,503 L 575,502 L 577,502 L 578,501 L 580,501 L 581,500 L 583,500 L 584,499 L 585,499 L 586,498 L 588,498 L 589,497 L 590,497 L 591,496 L 593,496 L 594,495 L 595,495 L 596,494 L 597,494 L 598,493 L 599,493 L 600,492 L 601,492 L 602,491 L 603,491 L 604,490 L 605,490 L 606,489 L 607,489 L 608,488 L 609,488 L 611,486 L 612,486 L 613,485 L 614,485 L 616,483 L 617,483 L 618,482 L 619,482 L 621,480 L 622,480 L 624,478 L 625,478 L 628,475 L 629,475 L 632,472 L 633,472 L 637,468 L 638,468 L 645,461 L 646,461 L 656,451 L 656,450 L 662,444 L 662,443 L 667,438 L 667,437 L 670,434 L 670,433 L 672,431 L 672,430 L 674,428 L 674,427 L 676,425 L 676,424 L 678,422 L 678,421 L 679,420 L 679,419 L 681,417 L 681,416 L 682,415 L 682,414 L 683,413 L 683,412 L 684,411 L 684,410 L 686,408 L 686,407 L 687,406 L 687,405 L 688,404 L 688,402 L 689,401 L 689,400 L 690,399 L 690,398 L 691,397 L 691,396 L 692,395 L 692,393 L 693,392 L 693,391 L 694,390 L 694,388 L 695,387 L 695,385 L 696,384 L 696,383 L 697,382 L 697,379 L 698,378 L 698,376 L 699,375 L 699,373 L 700,372 L 700,370 L 701,369 L 701,366 L 702,365 L 702,362 L 703,361 L 703,358 L 704,357 L 704,353 L 705,352 L 705,347 L 706,346 L 706,340 L 707,339 L 707,330 L 708,329 Z M 316,328 L 316,335 L 317,336 L 317,343 L 318,344 L 318,349 L 319,350 L 319,354 L 320,355 L 320,359 L 321,360 L 321,363 L 322,364 L 322,367 L 323,368 L 323,371 L 324,372 L 324,374 L 325,375 L 325,377 L 326,378 L 326,381 L 327,382 L 327,383 L 328,384 L 328,386 L 329,387 L 329,389 L 330,390 L 330,391 L 331,392 L 331,394 L 332,395 L 332,396 L 333,397 L 333,398 L 334,399 L 334,400 L 335,401 L 335,403 L 336,404 L 336,405 L 337,406 L 337,407 L 338,408 L 338,409 L 340,411 L 340,412 L 341,413 L 341,414 L 342,415 L 342,416 L 343,417 L 343,418 L 345,420 L 345,421 L 346,422 L 346,423 L 348,425 L 348,426 L 350,428 L 350,429 L 353,432 L 353,433 L 355,435 L 355,436 L 358,439 L 358,440 L 363,445 L 363,446 L 382,465 L 383,465 L 388,470 L 389,470 L 392,473 L 393,473 L 395,475 L 396,475 L 399,478 L 400,478 L 402,480 L 403,480 L 405,482 L 406,482 L 407,483 L 408,483 L 410,485 L 411,485 L 412,486 L 413,486 L 414,487 L 415,487 L 417,489 L 418,489 L 419,490 L 420,490 L 421,491 L 422,491 L 423,492 L 424,492 L 425,493 L 426,493 L 427,494 L 429,494 L 430,495 L 431,495 L 432,496 L 433,496 L 434,497 L 436,497 L 437,498 L 438,498 L 439,499 L 441,499 L 442,500 L 444,500 L 445,501 L 447,501 L 448,502 L 450,502 L 451,503 L 453,503 L 454,504 L 457,504 L 458,505 L 461,505 L 462,506 L 465,506 L 464,505 L 463,505 L 460,502 L 460,501 L 458,499 L 458,498 L 457,497 L 457,494 L 456,493 L 456,491 L 454,491 L 453,490 L 451,490 L 450,489 L 449,489 L 448,488 L 446,488 L 445,487 L 443,487 L 442,486 L 441,486 L 440,485 L 439,485 L 438,484 L 437,484 L 436,483 L 434,483 L 433,482 L 432,482 L 431,481 L 430,481 L 429,480 L 428,480 L 427,479 L 426,479 L 424,477 L 423,477 L 422,476 L 421,476 L 420,475 L 419,475 L 417,473 L 416,473 L 415,472 L 414,472 L 412,470 L 411,470 L 409,468 L 408,468 L 406,466 L 405,466 L 402,463 L 401,463 L 398,460 L 397,460 L 393,456 L 392,456 L 370,434 L 370,433 L 365,428 L 365,427 L 362,424 L 362,423 L 360,421 L 360,420 L 358,418 L 358,417 L 356,415 L 356,414 L 354,412 L 354,411 L 353,410 L 353,409 L 351,407 L 351,406 L 350,405 L 350,404 L 349,403 L 349,402 L 348,401 L 348,400 L 347,399 L 347,398 L 346,397 L 346,396 L 345,395 L 345,394 L 344,393 L 344,392 L 343,391 L 343,390 L 342,389 L 342,387 L 341,386 L 341,385 L 340,384 L 340,383 L 339,382 L 339,380 L 338,379 L 338,377 L 337,376 L 337,374 L 336,373 L 336,371 L 335,370 L 335,368 L 334,367 L 334,364 L 333,363 L 333,360 L 332,359 L 332,356 L 331,355 L 331,352 L 330,351 L 330,346 L 329,345 L 329,341 Z M 799,303 L 798,304 L 795,304 L 794,305 L 793,305 L 792,306 L 791,306 L 790,307 L 789,307 L 786,310 L 785,310 L 785,311 L 781,315 L 781,316 L 780,317 L 780,318 L 779,319 L 779,321 L 778,322 L 778,325 L 777,326 L 777,363 L 779,363 L 780,362 L 781,362 L 782,361 L 783,361 L 784,360 L 785,360 L 786,359 L 787,359 L 786,358 L 786,334 L 787,333 L 787,327 L 788,326 L 788,323 L 789,322 L 789,321 L 795,315 L 796,315 L 797,314 L 798,314 L 799,313 L 802,313 L 803,312 L 805,312 L 806,313 L 809,313 L 810,314 L 811,314 L 812,315 L 813,315 L 819,321 L 819,322 L 820,323 L 820,324 L 821,325 L 821,328 L 822,329 L 822,359 L 823,360 L 824,360 L 825,361 L 827,361 L 828,362 L 829,362 L 830,363 L 832,363 L 832,344 L 831,343 L 831,342 L 832,341 L 831,340 L 831,339 L 832,338 L 832,337 L 831,336 L 831,325 L 830,324 L 830,321 L 829,320 L 829,319 L 828,318 L 828,317 L 827,316 L 827,315 L 825,313 L 825,312 L 822,309 L 821,309 L 819,307 L 818,307 L 817,306 L 816,306 L 815,305 L 814,305 L 813,304 L 809,304 L 808,303 Z M 216,303 L 215,304 L 211,304 L 210,305 L 208,305 L 207,306 L 206,306 L 204,308 L 203,308 L 197,314 L 197,315 L 196,316 L 196,317 L 195,318 L 195,319 L 194,320 L 194,322 L 193,323 L 193,327 L 192,328 L 192,363 L 193,363 L 194,362 L 196,362 L 197,361 L 198,361 L 199,360 L 201,360 L 202,359 L 202,358 L 201,357 L 201,350 L 202,349 L 202,347 L 201,346 L 202,345 L 202,342 L 201,341 L 202,340 L 202,326 L 203,325 L 203,323 L 204,322 L 204,321 L 210,315 L 211,315 L 212,314 L 213,314 L 214,313 L 218,313 L 219,312 L 220,312 L 221,313 L 224,313 L 225,314 L 226,314 L 227,315 L 228,315 L 234,321 L 234,322 L 235,323 L 235,325 L 236,326 L 236,330 L 237,331 L 237,359 L 238,360 L 239,360 L 240,361 L 242,361 L 243,362 L 244,362 L 245,363 L 246,363 L 246,325 L 245,324 L 245,321 L 244,320 L 244,319 L 243,318 L 243,317 L 242,316 L 242,315 L 235,308 L 234,308 L 233,307 L 232,307 L 230,305 L 228,305 L 227,304 L 224,304 L 223,303 Z M 507,291 L 508,290 L 515,290 L 516,291 L 519,291 L 520,292 L 521,292 L 523,294 L 524,294 L 527,297 L 527,298 L 529,300 L 529,301 L 530,302 L 530,303 L 531,304 L 531,306 L 532,307 L 532,317 L 531,318 L 531,319 L 530,320 L 530,321 L 529,322 L 529,323 L 524,328 L 523,328 L 521,330 L 519,330 L 518,331 L 506,331 L 505,330 L 503,330 L 502,329 L 501,329 L 495,323 L 495,322 L 493,320 L 493,319 L 492,318 L 492,314 L 491,313 L 491,308 L 492,307 L 492,304 L 493,303 L 493,302 L 494,301 L 494,300 L 496,298 L 496,297 L 498,295 L 499,295 L 501,293 L 502,293 L 503,292 L 504,292 L 505,291 Z M 510,279 L 509,280 L 504,280 L 503,281 L 501,281 L 500,282 L 499,282 L 498,283 L 497,283 L 496,284 L 495,284 L 492,287 L 491,287 L 489,289 L 489,290 L 486,293 L 486,294 L 484,296 L 484,298 L 483,299 L 483,301 L 482,302 L 482,304 L 481,305 L 481,317 L 482,318 L 482,320 L 483,321 L 483,323 L 484,324 L 484,325 L 486,327 L 486,328 L 488,330 L 488,331 L 492,335 L 493,335 L 495,337 L 496,337 L 498,339 L 500,339 L 501,340 L 502,340 L 503,341 L 506,341 L 507,342 L 517,342 L 518,341 L 521,341 L 522,340 L 524,340 L 525,339 L 526,339 L 528,337 L 529,337 L 531,335 L 532,335 L 537,330 L 537,329 L 539,327 L 539,326 L 540,325 L 540,324 L 541,323 L 541,320 L 542,319 L 542,315 L 543,314 L 543,308 L 542,307 L 542,304 L 541,303 L 541,301 L 540,300 L 540,298 L 539,297 L 539,296 L 537,294 L 537,293 L 529,285 L 528,285 L 526,283 L 525,283 L 524,282 L 523,282 L 522,281 L 520,281 L 519,280 L 515,280 L 514,279 Z M 443,268 L 442,269 L 436,269 L 435,270 L 432,270 L 432,272 L 431,273 L 431,274 L 430,275 L 430,276 L 429,277 L 429,279 L 428,280 L 428,281 L 427,282 L 427,284 L 426,285 L 426,288 L 425,289 L 425,292 L 424,293 L 424,300 L 423,301 L 423,325 L 424,326 L 424,330 L 425,331 L 425,335 L 426,336 L 426,338 L 427,339 L 427,342 L 428,343 L 428,344 L 429,345 L 429,347 L 430,348 L 430,349 L 431,350 L 431,351 L 432,352 L 432,353 L 433,354 L 433,355 L 434,356 L 434,357 L 436,359 L 436,360 L 438,362 L 438,363 L 441,366 L 441,367 L 452,378 L 453,378 L 456,381 L 457,381 L 459,383 L 460,383 L 462,385 L 463,385 L 464,386 L 465,386 L 466,387 L 467,387 L 469,389 L 471,389 L 475,385 L 476,385 L 479,382 L 478,381 L 477,381 L 476,380 L 475,380 L 474,379 L 473,379 L 472,378 L 471,378 L 470,377 L 469,377 L 467,375 L 466,375 L 464,373 L 463,373 L 459,369 L 458,369 L 451,362 L 451,361 L 447,357 L 447,356 L 445,354 L 445,353 L 444,352 L 444,351 L 442,349 L 442,348 L 441,347 L 441,346 L 440,345 L 440,343 L 439,342 L 439,341 L 438,340 L 438,338 L 437,337 L 437,335 L 436,334 L 436,332 L 435,331 L 435,326 L 434,325 L 434,319 L 433,318 L 433,306 L 434,305 L 434,298 L 435,297 L 435,293 L 436,292 L 436,289 L 437,288 L 437,285 L 438,284 L 438,283 L 439,282 L 439,280 L 440,279 L 440,278 L 441,277 L 441,276 L 442,275 L 442,274 L 443,273 L 443,272 L 444,271 L 444,270 L 446,268 Z M 509,263 L 510,262 L 515,262 L 516,263 L 522,263 L 523,264 L 526,264 L 527,265 L 528,265 L 529,266 L 531,266 L 532,267 L 533,267 L 534,268 L 535,268 L 537,270 L 538,270 L 541,273 L 542,273 L 548,279 L 548,280 L 551,283 L 551,284 L 553,286 L 553,287 L 554,288 L 554,289 L 555,290 L 555,291 L 556,292 L 556,294 L 557,295 L 557,297 L 558,298 L 558,301 L 559,302 L 559,306 L 560,307 L 560,319 L 559,320 L 559,325 L 558,326 L 558,329 L 557,330 L 557,332 L 556,333 L 556,334 L 555,335 L 555,336 L 554,337 L 554,338 L 553,339 L 553,340 L 551,342 L 551,343 L 545,349 L 544,349 L 541,352 L 540,352 L 539,353 L 538,353 L 537,354 L 536,354 L 535,355 L 534,355 L 533,356 L 532,356 L 531,357 L 528,357 L 527,358 L 524,358 L 523,359 L 502,359 L 501,358 L 498,358 L 497,357 L 495,357 L 494,356 L 492,356 L 491,355 L 490,355 L 489,354 L 488,354 L 487,353 L 486,353 L 484,351 L 483,351 L 480,348 L 479,348 L 473,342 L 473,341 L 470,338 L 470,337 L 469,336 L 469,335 L 468,334 L 468,333 L 467,332 L 467,331 L 466,330 L 466,328 L 465,327 L 465,325 L 464,324 L 464,318 L 463,317 L 463,307 L 464,306 L 464,301 L 465,300 L 465,298 L 466,297 L 466,294 L 467,293 L 467,292 L 468,291 L 468,290 L 469,289 L 469,288 L 470,287 L 470,286 L 471,285 L 471,284 L 474,281 L 474,280 L 482,272 L 483,272 L 486,269 L 487,269 L 488,268 L 489,268 L 490,267 L 491,267 L 492,266 L 494,266 L 495,265 L 497,265 L 498,264 L 501,264 L 502,263 Z M 502,252 L 501,253 L 497,253 L 496,254 L 493,254 L 492,255 L 491,255 L 490,256 L 488,256 L 487,257 L 486,257 L 485,258 L 484,258 L 483,259 L 482,259 L 480,261 L 479,261 L 477,263 L 476,263 L 472,267 L 471,267 L 468,270 L 468,271 L 464,275 L 464,276 L 462,278 L 462,279 L 460,281 L 460,282 L 459,283 L 459,284 L 458,285 L 458,286 L 457,287 L 457,288 L 456,289 L 456,291 L 455,292 L 455,294 L 454,295 L 454,298 L 453,299 L 453,303 L 452,304 L 452,320 L 453,321 L 453,325 L 454,326 L 454,329 L 455,330 L 455,332 L 456,333 L 456,335 L 457,336 L 457,337 L 458,338 L 458,339 L 459,340 L 459,341 L 460,342 L 460,343 L 462,345 L 462,346 L 465,349 L 465,350 L 470,355 L 471,355 L 475,359 L 476,359 L 478,361 L 479,361 L 480,362 L 481,362 L 482,363 L 483,363 L 484,364 L 485,364 L 486,365 L 487,365 L 488,366 L 490,366 L 491,367 L 493,367 L 494,368 L 496,368 L 497,369 L 501,369 L 502,370 L 511,370 L 512,371 L 516,371 L 517,370 L 525,370 L 526,369 L 529,369 L 530,368 L 532,368 L 533,367 L 535,367 L 536,366 L 538,366 L 539,365 L 540,365 L 541,364 L 542,364 L 543,363 L 544,363 L 545,362 L 546,362 L 548,360 L 549,360 L 552,357 L 553,357 L 558,352 L 558,351 L 561,348 L 561,347 L 563,345 L 563,344 L 564,343 L 564,342 L 565,341 L 565,340 L 566,339 L 566,338 L 567,337 L 567,335 L 568,334 L 568,332 L 569,331 L 569,328 L 570,327 L 570,323 L 571,322 L 571,306 L 570,305 L 570,300 L 569,299 L 569,296 L 568,295 L 568,293 L 567,292 L 567,290 L 566,289 L 566,288 L 565,287 L 565,286 L 564,285 L 564,284 L 563,283 L 563,282 L 562,281 L 562,280 L 560,278 L 560,277 L 558,275 L 558,274 L 547,263 L 546,263 L 544,261 L 543,261 L 541,259 L 540,259 L 539,258 L 538,258 L 537,257 L 536,257 L 535,256 L 534,256 L 533,255 L 531,255 L 530,254 L 528,254 L 527,253 L 523,253 L 522,252 Z M 500,220 L 499,221 L 488,221 L 487,222 L 480,222 L 479,223 L 474,223 L 473,224 L 469,224 L 468,225 L 465,225 L 464,226 L 460,226 L 459,227 L 456,227 L 455,228 L 453,228 L 452,229 L 450,229 L 449,230 L 446,230 L 445,231 L 443,231 L 442,232 L 441,232 L 440,233 L 438,233 L 437,234 L 435,234 L 434,235 L 433,235 L 432,236 L 430,236 L 429,237 L 428,237 L 427,238 L 426,238 L 425,239 L 423,239 L 422,240 L 421,240 L 420,241 L 419,241 L 418,242 L 417,242 L 416,243 L 415,243 L 414,244 L 413,244 L 412,245 L 411,245 L 410,246 L 409,246 L 408,247 L 407,247 L 405,249 L 404,249 L 403,250 L 402,250 L 401,251 L 400,251 L 398,253 L 397,253 L 395,255 L 394,255 L 393,256 L 392,256 L 390,258 L 389,258 L 387,260 L 386,260 L 384,262 L 383,262 L 380,265 L 379,265 L 376,268 L 375,268 L 372,271 L 371,271 L 367,275 L 366,275 L 360,281 L 359,281 L 351,289 L 350,289 L 329,310 L 329,311 L 323,317 L 327,321 L 327,322 L 355,350 L 356,350 L 362,356 L 363,356 L 368,361 L 369,361 L 373,365 L 374,365 L 377,368 L 378,368 L 380,370 L 381,370 L 383,372 L 384,372 L 386,374 L 387,374 L 389,376 L 390,376 L 392,378 L 393,378 L 395,380 L 396,380 L 397,381 L 398,381 L 400,383 L 401,383 L 402,384 L 403,384 L 405,386 L 406,386 L 407,387 L 408,387 L 409,388 L 410,388 L 411,389 L 412,389 L 413,390 L 414,390 L 415,391 L 416,391 L 417,392 L 419,392 L 420,393 L 421,393 L 422,394 L 423,394 L 424,395 L 426,395 L 427,396 L 428,396 L 429,397 L 431,397 L 432,398 L 433,398 L 434,399 L 436,399 L 437,400 L 439,400 L 440,401 L 441,401 L 442,402 L 444,402 L 445,403 L 447,403 L 448,404 L 451,404 L 452,405 L 454,405 L 455,406 L 457,406 L 458,407 L 459,406 L 459,405 L 460,404 L 460,402 L 462,400 L 462,399 L 465,396 L 463,396 L 462,395 L 460,395 L 459,394 L 456,394 L 455,393 L 453,393 L 452,392 L 450,392 L 449,391 L 447,391 L 446,390 L 445,390 L 444,389 L 442,389 L 441,388 L 439,388 L 438,387 L 437,387 L 436,386 L 434,386 L 433,385 L 432,385 L 431,384 L 429,384 L 428,383 L 427,383 L 426,382 L 425,382 L 424,381 L 423,381 L 422,380 L 421,380 L 420,379 L 419,379 L 418,378 L 417,378 L 416,377 L 415,377 L 414,376 L 413,376 L 412,375 L 411,375 L 409,373 L 408,373 L 407,372 L 406,372 L 405,371 L 404,371 L 402,369 L 401,369 L 399,367 L 398,367 L 397,366 L 396,366 L 393,363 L 392,363 L 390,361 L 389,361 L 387,359 L 386,359 L 383,356 L 382,356 L 378,352 L 377,352 L 373,348 L 372,348 L 365,341 L 364,341 L 345,322 L 345,321 L 341,317 L 341,316 L 356,301 L 357,301 L 364,294 L 365,294 L 371,288 L 372,288 L 376,284 L 377,284 L 380,281 L 381,281 L 385,277 L 386,277 L 388,275 L 389,275 L 392,272 L 393,272 L 395,270 L 396,270 L 398,268 L 399,268 L 400,267 L 401,267 L 403,265 L 404,265 L 405,264 L 406,264 L 408,262 L 409,262 L 410,261 L 411,261 L 412,260 L 413,260 L 415,258 L 416,258 L 417,257 L 418,257 L 419,256 L 420,256 L 421,255 L 422,255 L 423,254 L 424,254 L 425,253 L 426,253 L 427,252 L 428,252 L 429,251 L 431,251 L 432,250 L 433,250 L 434,249 L 435,249 L 436,248 L 438,248 L 439,247 L 440,247 L 441,246 L 443,246 L 444,245 L 446,245 L 447,244 L 449,244 L 450,243 L 452,243 L 453,242 L 455,242 L 456,241 L 459,241 L 460,240 L 462,240 L 463,239 L 466,239 L 467,238 L 471,238 L 472,237 L 475,237 L 476,236 L 481,236 L 482,235 L 488,235 L 489,234 L 499,234 L 500,233 L 518,233 L 519,234 L 526,234 L 527,235 L 531,235 L 532,236 L 535,236 L 536,237 L 539,237 L 540,238 L 541,238 L 542,239 L 544,239 L 545,240 L 546,240 L 547,241 L 548,241 L 549,242 L 550,242 L 552,244 L 553,244 L 554,245 L 555,245 L 557,247 L 558,247 L 572,261 L 572,262 L 575,265 L 575,266 L 576,267 L 576,268 L 578,270 L 578,271 L 579,272 L 579,273 L 580,274 L 580,275 L 581,276 L 581,277 L 582,278 L 582,279 L 583,280 L 583,282 L 584,283 L 584,285 L 585,286 L 585,288 L 586,289 L 586,292 L 587,293 L 587,296 L 588,297 L 588,303 L 589,304 L 589,321 L 588,322 L 588,329 L 587,330 L 587,333 L 586,334 L 586,337 L 585,338 L 585,340 L 584,341 L 584,343 L 583,344 L 583,346 L 582,347 L 582,348 L 581,349 L 581,350 L 580,351 L 580,352 L 579,353 L 579,354 L 577,356 L 577,357 L 574,360 L 574,361 L 564,371 L 563,371 L 560,374 L 559,374 L 557,376 L 556,376 L 555,377 L 554,377 L 553,378 L 552,378 L 551,379 L 550,379 L 549,380 L 548,380 L 547,381 L 546,381 L 545,382 L 544,382 L 545,383 L 546,383 L 553,390 L 554,389 L 555,389 L 556,388 L 557,388 L 558,387 L 559,387 L 560,386 L 561,386 L 563,384 L 564,384 L 566,382 L 567,382 L 570,379 L 571,379 L 583,367 L 583,366 L 585,364 L 585,363 L 587,361 L 587,360 L 589,358 L 589,357 L 590,356 L 590,355 L 591,354 L 591,353 L 592,352 L 592,351 L 593,350 L 593,348 L 594,347 L 594,346 L 595,345 L 595,343 L 596,342 L 596,339 L 597,338 L 597,335 L 598,334 L 598,331 L 599,330 L 599,323 L 600,322 L 600,303 L 599,302 L 599,296 L 598,295 L 598,291 L 597,290 L 597,287 L 596,286 L 596,284 L 595,283 L 595,281 L 594,280 L 594,278 L 593,277 L 593,276 L 592,275 L 592,274 L 591,273 L 591,272 L 590,271 L 590,270 L 589,269 L 589,268 L 588,267 L 588,266 L 587,265 L 587,264 L 585,262 L 585,261 L 583,259 L 583,258 L 581,256 L 581,255 L 577,251 L 577,250 L 571,244 L 571,243 L 572,242 L 573,242 L 574,243 L 576,243 L 577,244 L 579,244 L 580,245 L 581,245 L 582,246 L 584,246 L 585,247 L 586,247 L 587,248 L 589,248 L 590,249 L 591,249 L 592,250 L 593,250 L 594,251 L 595,251 L 596,252 L 597,252 L 598,253 L 599,253 L 600,254 L 601,254 L 602,255 L 603,255 L 604,256 L 605,256 L 606,257 L 607,257 L 608,258 L 609,258 L 610,259 L 611,259 L 612,260 L 613,260 L 615,262 L 616,262 L 617,263 L 618,263 L 620,265 L 621,265 L 622,266 L 623,266 L 625,268 L 626,268 L 628,270 L 629,270 L 631,272 L 632,272 L 635,275 L 636,275 L 638,277 L 639,277 L 642,280 L 643,280 L 647,284 L 648,284 L 653,289 L 654,289 L 659,294 L 660,294 L 666,300 L 667,300 L 683,316 L 683,317 L 659,341 L 658,341 L 652,347 L 651,347 L 647,351 L 646,351 L 642,355 L 641,355 L 638,358 L 637,358 L 635,360 L 634,360 L 631,363 L 630,363 L 628,365 L 627,365 L 625,367 L 624,367 L 622,369 L 621,369 L 620,370 L 619,370 L 617,372 L 616,372 L 615,373 L 614,373 L 612,375 L 611,375 L 610,376 L 609,376 L 608,377 L 607,377 L 606,378 L 605,378 L 604,379 L 603,379 L 602,380 L 601,380 L 600,381 L 599,381 L 598,382 L 597,382 L 596,383 L 595,383 L 594,384 L 593,384 L 592,385 L 591,385 L 590,386 L 588,386 L 587,387 L 586,387 L 585,388 L 583,388 L 582,389 L 581,389 L 580,390 L 578,390 L 577,391 L 575,391 L 574,392 L 572,392 L 571,393 L 569,393 L 568,394 L 565,394 L 564,395 L 562,395 L 561,396 L 559,396 L 561,398 L 561,399 L 563,401 L 563,402 L 564,403 L 564,404 L 565,405 L 565,407 L 567,407 L 568,406 L 570,406 L 571,405 L 573,405 L 574,404 L 576,404 L 577,403 L 579,403 L 580,402 L 582,402 L 583,401 L 585,401 L 586,400 L 587,400 L 588,399 L 590,399 L 591,398 L 592,398 L 593,397 L 595,397 L 596,396 L 597,396 L 598,395 L 599,395 L 600,394 L 602,394 L 603,393 L 604,393 L 605,392 L 606,392 L 607,391 L 608,391 L 609,390 L 610,390 L 611,389 L 612,389 L 613,388 L 614,388 L 615,387 L 616,387 L 618,385 L 619,385 L 620,384 L 621,384 L 622,383 L 623,383 L 625,381 L 626,381 L 627,380 L 628,380 L 630,378 L 631,378 L 633,376 L 634,376 L 636,374 L 637,374 L 639,372 L 640,372 L 642,370 L 643,370 L 646,367 L 647,367 L 650,364 L 651,364 L 655,360 L 656,360 L 660,356 L 661,356 L 670,347 L 671,347 L 696,322 L 696,321 L 700,317 L 700,316 L 692,308 L 692,307 L 674,289 L 673,289 L 664,280 L 663,280 L 658,275 L 657,275 L 653,271 L 652,271 L 649,268 L 648,268 L 645,265 L 644,265 L 642,263 L 641,263 L 638,260 L 637,260 L 635,258 L 634,258 L 632,256 L 631,256 L 629,254 L 628,254 L 626,252 L 625,252 L 624,251 L 623,251 L 622,250 L 621,250 L 619,248 L 618,248 L 617,247 L 616,247 L 615,246 L 614,246 L 613,245 L 612,245 L 611,244 L 610,244 L 609,243 L 608,243 L 607,242 L 606,242 L 605,241 L 604,241 L 603,240 L 602,240 L 601,239 L 600,239 L 599,238 L 597,238 L 596,237 L 595,237 L 594,236 L 592,236 L 591,235 L 590,235 L 589,234 L 587,234 L 586,233 L 585,233 L 584,232 L 581,232 L 580,231 L 578,231 L 577,230 L 575,230 L 574,229 L 572,229 L 571,228 L 568,228 L 567,227 L 564,227 L 563,226 L 560,226 L 559,225 L 556,225 L 555,224 L 550,224 L 549,223 L 544,223 L 543,222 L 536,222 L 535,221 L 525,221 L 524,220 Z M 558,185 L 558,187 L 557,188 L 557,190 L 556,191 L 556,194 L 555,195 L 555,198 L 554,199 L 554,201 L 553,202 L 554,203 L 555,203 L 556,204 L 558,204 L 559,205 L 560,205 L 561,206 L 562,205 L 562,203 L 563,202 L 563,199 L 564,198 L 564,195 L 565,194 L 565,192 L 566,191 L 566,188 L 565,188 L 564,187 L 562,187 L 561,186 L 560,186 L 559,185 Z M 464,185 L 463,186 L 462,186 L 461,187 L 459,187 L 458,188 L 457,188 L 457,191 L 458,192 L 458,195 L 459,196 L 459,198 L 460,199 L 460,202 L 461,203 L 461,205 L 462,206 L 463,205 L 464,205 L 465,204 L 467,204 L 468,203 L 469,203 L 470,202 L 469,201 L 469,198 L 468,197 L 468,195 L 467,194 L 467,191 L 466,190 L 466,187 L 465,186 L 465,185 Z M 507,160 L 507,199 L 517,199 L 517,160 Z M 492,126 L 491,127 L 483,127 L 482,128 L 476,128 L 475,129 L 470,129 L 469,130 L 466,130 L 465,131 L 462,131 L 461,132 L 458,132 L 457,133 L 454,133 L 453,134 L 451,134 L 450,135 L 448,135 L 447,136 L 445,136 L 444,137 L 442,137 L 441,138 L 440,138 L 439,139 L 437,139 L 436,140 L 435,140 L 434,141 L 432,141 L 431,142 L 430,142 L 429,143 L 428,143 L 427,144 L 426,144 L 425,145 L 424,145 L 423,146 L 421,146 L 419,148 L 418,148 L 417,149 L 416,149 L 415,150 L 414,150 L 412,152 L 411,152 L 410,153 L 409,153 L 408,154 L 407,154 L 405,156 L 404,156 L 402,158 L 401,158 L 398,161 L 397,161 L 395,163 L 394,163 L 392,165 L 391,165 L 387,169 L 386,169 L 380,175 L 379,175 L 364,190 L 364,191 L 359,196 L 359,197 L 355,201 L 355,202 L 352,205 L 352,206 L 349,209 L 349,210 L 347,212 L 347,213 L 345,215 L 345,216 L 344,217 L 344,218 L 342,220 L 342,221 L 341,222 L 341,223 L 340,224 L 340,225 L 339,226 L 339,227 L 338,228 L 338,229 L 337,230 L 337,231 L 336,232 L 336,233 L 335,234 L 335,235 L 334,236 L 334,237 L 333,238 L 333,239 L 332,240 L 332,242 L 331,243 L 331,244 L 330,245 L 330,247 L 329,248 L 329,249 L 328,250 L 328,252 L 327,253 L 327,255 L 326,256 L 326,258 L 325,259 L 325,261 L 324,262 L 324,264 L 323,265 L 323,268 L 322,269 L 322,272 L 321,273 L 321,277 L 320,278 L 320,282 L 319,283 L 319,288 L 318,289 L 318,295 L 317,296 L 317,303 L 316,304 L 317,304 L 329,292 L 329,290 L 330,289 L 330,285 L 331,284 L 331,281 L 332,280 L 332,277 L 333,276 L 333,274 L 334,273 L 334,271 L 335,270 L 335,267 L 336,266 L 336,264 L 337,263 L 337,262 L 338,261 L 338,259 L 339,258 L 339,256 L 340,255 L 340,254 L 341,253 L 341,251 L 342,250 L 342,249 L 343,248 L 343,247 L 344,246 L 344,244 L 345,243 L 345,242 L 346,241 L 346,240 L 347,239 L 347,238 L 349,236 L 349,235 L 350,234 L 350,233 L 351,232 L 351,231 L 352,230 L 352,229 L 354,227 L 354,226 L 355,225 L 355,224 L 357,222 L 357,221 L 360,218 L 360,217 L 362,215 L 362,214 L 365,211 L 365,210 L 369,206 L 369,205 L 375,199 L 375,198 L 390,183 L 391,183 L 396,178 L 397,178 L 401,174 L 402,174 L 405,171 L 406,171 L 408,169 L 409,169 L 411,167 L 412,167 L 413,166 L 414,166 L 416,164 L 417,164 L 418,163 L 419,163 L 421,161 L 422,161 L 423,160 L 424,160 L 425,159 L 426,159 L 427,158 L 428,158 L 429,157 L 430,157 L 431,156 L 432,156 L 433,155 L 434,155 L 435,154 L 437,154 L 438,153 L 439,153 L 440,152 L 441,152 L 442,151 L 444,151 L 445,150 L 447,150 L 448,149 L 449,149 L 450,148 L 452,148 L 453,147 L 455,147 L 456,146 L 459,146 L 460,145 L 462,145 L 463,144 L 467,144 L 468,143 L 471,143 L 472,142 L 476,142 L 477,141 L 483,141 L 484,140 L 492,140 L 493,139 L 531,139 L 532,140 L 539,140 L 540,141 L 545,141 L 546,142 L 550,142 L 551,143 L 555,143 L 556,144 L 559,144 L 560,145 L 563,145 L 564,146 L 566,146 L 567,147 L 569,147 L 570,148 L 572,148 L 573,149 L 575,149 L 576,150 L 578,150 L 579,151 L 580,151 L 581,152 L 583,152 L 584,153 L 585,153 L 586,154 L 587,154 L 588,155 L 590,155 L 591,156 L 592,156 L 593,157 L 594,157 L 595,158 L 596,158 L 597,159 L 598,159 L 599,160 L 600,160 L 602,162 L 603,162 L 604,163 L 605,163 L 606,164 L 607,164 L 609,166 L 610,166 L 612,168 L 613,168 L 614,169 L 615,169 L 618,172 L 619,172 L 621,174 L 622,174 L 627,179 L 628,179 L 632,183 L 633,183 L 650,200 L 650,201 L 654,205 L 654,206 L 658,210 L 658,211 L 661,214 L 661,215 L 663,217 L 663,218 L 666,221 L 666,222 L 668,224 L 668,225 L 669,226 L 669,227 L 671,229 L 671,230 L 672,231 L 672,232 L 674,234 L 674,235 L 675,236 L 675,237 L 676,238 L 676,239 L 677,240 L 677,241 L 678,242 L 678,243 L 679,244 L 679,245 L 680,246 L 680,247 L 681,248 L 681,250 L 682,251 L 682,252 L 683,253 L 683,255 L 684,256 L 684,257 L 685,258 L 685,260 L 686,261 L 686,263 L 687,264 L 687,266 L 688,267 L 688,269 L 689,270 L 689,273 L 690,274 L 690,276 L 691,277 L 691,280 L 692,281 L 692,284 L 693,285 L 693,289 L 694,290 L 694,293 L 703,302 L 704,302 L 706,304 L 706,296 L 705,295 L 705,289 L 704,288 L 704,283 L 703,282 L 703,278 L 702,277 L 702,273 L 701,272 L 701,269 L 700,268 L 700,265 L 699,264 L 699,262 L 698,261 L 698,259 L 697,258 L 697,256 L 696,255 L 696,253 L 695,252 L 695,250 L 694,249 L 694,247 L 693,246 L 693,245 L 692,244 L 692,242 L 691,241 L 691,240 L 690,239 L 690,237 L 689,236 L 689,235 L 688,234 L 688,233 L 687,232 L 687,231 L 686,230 L 686,229 L 685,228 L 685,227 L 684,226 L 684,225 L 683,224 L 683,223 L 681,221 L 681,220 L 680,219 L 680,218 L 678,216 L 678,215 L 677,214 L 677,213 L 675,211 L 675,210 L 673,208 L 673,207 L 670,204 L 670,203 L 666,199 L 666,198 L 662,194 L 662,193 L 642,173 L 641,173 L 636,168 L 635,168 L 631,164 L 630,164 L 628,162 L 627,162 L 624,159 L 623,159 L 621,157 L 620,157 L 619,156 L 618,156 L 616,154 L 615,154 L 613,152 L 612,152 L 611,151 L 610,151 L 609,150 L 608,150 L 606,148 L 605,148 L 604,147 L 603,147 L 602,146 L 601,146 L 600,145 L 599,145 L 598,144 L 596,144 L 595,143 L 594,143 L 593,142 L 592,142 L 591,141 L 590,141 L 589,140 L 587,140 L 586,139 L 585,139 L 584,138 L 582,138 L 581,137 L 579,137 L 578,136 L 576,136 L 575,135 L 573,135 L 572,134 L 570,134 L 569,133 L 566,133 L 565,132 L 563,132 L 562,131 L 559,131 L 558,130 L 554,130 L 553,129 L 548,129 L 547,128 L 542,128 L 541,127 L 534,127 L 533,126 Z" fill="none" fill-rule="evenodd" stroke="url(#goldGradient)" stroke-width="3" stroke-linecap="round" stroke-linejoin="round" style="fill:none;stroke:url(#goldGradient);stroke-width:3;stroke-linecap:round;stroke-linejoin:round"/>
		

	</g>
</svg>
