<svg xmlns="http://www.w3.org/2000/svg" viewBox="0 0 512 512" fill="none" stroke="currentColor" stroke-width="22" stroke-linecap="round" stroke-linejoin="round">

    
    <circle cx="256" cy="256" r="224" />
    <path d="M256 32v25.2"/>
    <path d="M256 480v-25.2"/>
    <path d="M32 256h25.2"/>
    <path d="M480 256h-25.2"/>
    
    <path d="M256 96c-28 40-36 84-16 120 16 28 8 56-8 72-24 24-72 24-96-12-28-44 8-112 120-180z"/>
    <path d="M256 96c28 40 36 84 16 120-16 28-8 56 8 72 24 24 72 24 96-12 28-44-8-112-120-180z"/>
    <path d="M256 184c-8 16-8 32 0 48 8 16 8 32 0 48" />

</svg>