<svg xmlns="http://www.w3.org/2000/svg" viewBox="0 0 512 512" fill="none" stroke="currentColor" stroke-width="22" stroke-linecap="round" stroke-linejoin="round">

    
    <circle cx="256" cy="256" r="224" />
    <path d="M256 32v25.2"/>
    <path d="M256 480v-25.2"/>
    <path d="M32 256h25.2"/>
    <path d="M480 256h-25.2"/>
    
    <path d="M144 160c0 112 64 176 112 176s112-64 112-176c0-24-40-32-112-32s-112 8-112 32z"/>
    <path d="M196 236c20 0 34 12 34 12s-14 12-34 12-34-12-34-12 14-12 34-12z"/>
    <path d="M316 236c20 0 34 12 34 12s-14 12-34 12-34-12-34-12 14-12 34-12z"/>
    <path d="M224 300c18 10 52 10 64 0"/>

</svg>