<svg xmlns="http://www.w3.org/2000/svg" viewBox="0 0 512 512" fill="none" stroke="currentColor" stroke-width="22" stroke-linecap="round" stroke-linejoin="round">

    
    <circle cx="256" cy="256" r="224" />
    <path d="M256 32v25.2"/>
    <path d="M256 480v-25.2"/>
    <path d="M32 256h25.2"/>
    <path d="M480 256h-25.2"/>
    
    <path d="M256 176c56 0 88 40 88 80 0 40-32 64-64 64-32 0-48-24-48-40 0-16 12-28 28-28 16 0 28 12 28 28" />
    <path d="M256 176c-56 0-88 40-88 80 0 32 20 64 60 84" />
    <path d="M256 176c0-56 40-88 80-88 32 0 64 20 84 60" />

</svg>